# xmcd CD database file
#
# Track frame offsets:
#	150
#	28660
#	39596
#	70809
#	87109
#	100020
#	106521
#	127217
#	131961
#	152505
#
# Disc length: 2249 seconds
#
# Revision: 0
# Processed by: cddbd v1.5.1PL2 Copyright (c) Steve Scherf et al.
# Submitted via: CDex 1.51
#
DISCID=7c08c70a
DTITLE=WORKSHOP - (1st album)
DYEAR=1990
DGENRE=Psychedelic
TTITLE0=Luke's Boutique
TTITLE1=Open Ocean Jam
TTITLE2=Navajo Blanket
TTITLE3=Adolescence
TTITLE4=Daddy 'n' Junior
TTITLE5=Frankfurt Art Fair '79
TTITLE6=Pillow Junction
TTITLE7=Sheer Elegance
TTITLE8=Very Story-Board
TTITLE9=Attempt to raise Hell
EXTD=YEAR: 1990
EXTT0=
EXTT1=
EXTT2=
EXTT3=
EXTT4=
EXTT5=
EXTT6=
EXTT7=
EXTT8=
EXTT9=
PLAYORDER=
